<svg width="464" height="128" viewBox="0 0 464 128" fill="none" xmlns="http://www.w3.org/2000/svg">
<rect width="128" height="128" fill="#00FFAA"/>
<path d="M144 56V40H152V32H160V24H168V16H176V8H144V0H200V16H192V24H184V32H176V40H168V48H200V56H144ZM208 56V0H256V8H264V32H248V40H256V48H264V56H240V48H232V40H224V56H208ZM224 32H240V24H248V8H224V32ZM296 56V8H280V0H328V8H312V56H296ZM336 56V0H352V24H376V0H392V56H376V32H352V56H336ZM152 120V112H144V104H160V112H184V96H152V88H144V72H152V64H192V72H200V80H184V72H160V88H192V96H200V112H192V120H152ZM208 120V64H256V72H264V96H256V104H224V120H208ZM224 96H248V72H224V96ZM272 120V80H280V72H288V64H312V72H320V80H328V120H312V104H288V120H272ZM288 96H312V80H304V72H296V80H288V96ZM352 120V112H344V104H336V80H344V72H352V64H384V72H392V80H376V72H360V80H352V104H360V112H376V104H392V112H384V120H352ZM400 120V64H456V72H416V88H448V96H416V112H456V120H400Z" fill="#262626"/>
</svg>
